<?xml version="1.0" encoding="utf-8"?>
<!-- Generator: Adobe Illustrator 16.0.0, SVG Export Plug-In . SVG Version: 6.00 Build 0)  -->
<!DOCTYPE svg PUBLIC "-//W3C//DTD SVG 1.1//EN" "http://www.w3.org/Graphics/SVG/1.1/DTD/svg11.dtd">
<svg version="1.1" id="Layer_1" xmlns="http://www.w3.org/2000/svg" xmlns:xlink="http://www.w3.org/1999/xlink" x="0px" y="0px"
	 width="179.666px" height="179.666px" viewBox="0 0 179.666 179.666" enable-background="new 0 0 179.666 179.666"
	 xml:space="preserve">
<g>
	<path fill="#417ACE" d="M89.833,179.666C40.299,179.666,0,139.367,0,89.833S40.299,0,89.833,0s89.833,40.299,89.833,89.833
		S139.367,179.666,89.833,179.666z M89.833,1C40.85,1,1,40.85,1,89.833c0,48.982,39.85,88.833,88.833,88.833
		s88.833-39.851,88.833-88.833C178.666,40.85,138.816,1,89.833,1z"/>
</g>
<g>
	<path fill="#417ACE" d="M97.917,23.299l-4.324-0.445l-0.65,6.309l-1.128-0.116l1.532-14.874l5.452,0.562
		c2.569,0.265,4.332,2.009,4.05,4.745C102.569,22.195,100.486,23.564,97.917,23.299z M98.57,15.725l-4.199-0.433l-0.676,6.559
		l4.199,0.433c2.068,0.213,3.596-0.685,3.827-2.92C101.951,17.128,100.638,15.938,98.57,15.725z"/>
	<path fill="#417ACE" d="M115.458,27.31l-3.822-1.525l-2.552,6.396l-1.053-0.42l5.541-13.884l5.285,2.109
		c2.262,0.902,3.457,2.894,2.492,5.312c-0.833,2.086-2.61,2.915-4.692,2.468l0.794,7.754l-1.229-0.49L115.458,27.31z
		 M118.346,20.867l-4.095-1.634l-2.241,5.616l4.095,1.634c1.794,0.716,3.412,0.344,4.182-1.586
		C121.057,22.966,120.14,21.583,118.346,20.867z"/>
	<path fill="#417ACE" d="M130.763,43.019c-1.385,0.176-2.765-0.203-3.894-1.078s-1.84-2.117-2.016-3.501
		c-0.243-1.915,0.563-2.991,2.622-5.647c2.071-2.673,2.898-3.706,4.813-3.949c1.385-0.176,2.765,0.203,3.894,1.078
		s1.84,2.117,2.016,3.501c0.243,1.916-0.551,2.974-2.622,5.647C133.518,41.727,132.678,42.776,130.763,43.019z M137.098,33.368
		c-0.134-1.061-0.687-1.993-1.534-2.649c-0.847-0.656-1.888-0.958-2.949-0.823c-1.502,0.19-2.289,1.069-4.245,3.592
		c-1.955,2.523-2.609,3.504-2.418,5.007c0.135,1.061,0.687,1.994,1.534,2.649c0.847,0.656,1.888,0.958,2.949,0.823
		c1.503-0.19,2.29-1.069,4.245-3.592C136.635,35.852,137.289,34.871,137.098,33.368z"/>
	<path fill="#417ACE" d="M136.47,51.205c-0.822-1.036-1.171-2.152-1.032-3.362l1.091,0.126c-0.092,0.796-0.092,1.573,0.73,2.61
		c1.344,1.694,3.114,1.764,5.005,0.264l8.077-6.406l0.705,0.888l-8.258,6.549C140.65,53.57,138.152,53.327,136.47,51.205z"/>
	<path fill="#417ACE" d="M157.075,54.986l3.751,8.259l-0.918,0.417l-3.282-7.227l-5.373,2.439l2.796,6.157l-0.918,0.417
		l-2.796-6.156l-5.487,2.492l3.282,7.227l-0.918,0.417l-3.75-8.26L157.075,54.986z"/>
	<path fill="#417ACE" d="M149.644,80.412c-0.222-1.409,0.111-2.801,0.933-3.929c1.136-1.561,2.459-1.79,5.777-2.312
		c3.339-0.525,4.648-0.711,6.208,0.425c1.128,0.821,1.873,2.043,2.095,3.453c0.418,2.654-0.947,4.781-3.523,5.697l-0.18-1.141
		c1.984-0.759,3.021-2.409,2.707-4.4c-0.167-1.058-0.717-1.991-1.581-2.62c-1.224-0.891-2.398-0.791-5.551-0.295
		c-3.152,0.497-4.3,0.763-5.191,1.986c-0.629,0.864-0.866,1.922-0.7,2.979c0.313,1.99,1.813,3.284,3.935,3.396l0.173,1.1
		C152.015,84.672,150.056,83.025,149.644,80.412z"/>
	<path fill="#417ACE" d="M150.178,96.134l0.106-1.129l13.881,1.308l0.417-4.432l1.003,0.094l-0.943,10.014l-1.003-0.095l0.419-4.452
		L150.178,96.134z"/>
	<path fill="#417ACE" d="M143.095,120.916c-0.302-0.964-0.17-1.985,0.384-3.047c0.575-1.098,1.33-1.817,2.228-2.083
		c0.793-0.248,1.675-0.166,2.626,0.236l-0.497,0.949c-1.521-0.535-2.702-0.228-3.52,1.336c-0.38,0.726-0.488,1.522-0.284,2.175
		c0.373,1.19,1.536,1.822,2.541,2.349c1.657,0.866,3.703,1.533,4.832-0.627c0.633-1.21,0.607-2.385-0.141-3.131l0.438-0.838
		l6.776,3.544l-3.33,6.366l-0.837-0.438l2.891-5.528l-4.691-2.453c0.35,0.918,0.247,1.931-0.327,3.028
		c-0.497,0.95-1.146,1.559-1.969,1.815c-1.446,0.453-2.892-0.137-4.139-0.789C144.812,123.118,143.548,122.362,143.095,120.916z"/>
	<path fill="#417ACE" d="M135.73,129.283c1.527-1.762,3.588-2.311,5.65-0.744l-0.702,0.809c-1.649-1.208-3.202-0.636-4.234,0.555
		c-1.17,1.349-1.174,3.181,0.334,4.488c1.523,1.321,3.045,1.362,4.545-0.368l0.165-0.19l0.714,0.62l-0.166,0.19
		c-1.321,1.523-1.131,2.939,0.329,4.205c1.476,1.28,3.125,1.014,4.185-0.208c1.156-1.333,1.037-2.799-0.108-4.043l0.702-0.809
		c1.626,1.716,1.552,3.82,0.121,5.471c-1.542,1.777-3.776,1.981-5.601,0.398c-1.206-1.046-1.68-2.264-1.181-3.832
		c-1.53,0.897-2.963,0.627-4.408-0.625C134.061,133.452,134.147,131.107,135.73,129.283z"/>
	<path fill="#417ACE" d="M83.765,165.3l-1.125-0.145l1.783-13.83l-7.873-1.016l0.129-1l8.998,1.16L83.765,165.3z"/>
	<path fill="#417ACE" d="M65.058,161.404l-8.405-3.414l0.379-0.935l7.354,2.988l2.221-5.467l-6.265-2.545l0.379-0.935l6.265,2.545
		l2.269-5.583l-7.354-2.988l0.379-0.934l8.404,3.415L65.058,161.404z"/>
	<path fill="#417ACE" d="M47.429,152.578l-7.238-5.472l0.608-0.804l6.333,4.787l3.559-4.708l-5.395-4.078l0.608-0.804l5.395,4.077
		l3.635-4.808l-6.333-4.788l0.608-0.804l7.238,5.471L47.429,152.578z"/>
	<path fill="#417ACE" d="M38.071,124.25c1.266,0.172,2.397,0.895,3.351,2.147l3.042,3.993l-11.896,9.061l-3.042-3.993
		c-0.954-1.253-1.35-2.535-1.179-3.801c0.287-2.12,2.213-3.508,3.817-4.729S35.952,123.964,38.071,124.25z M29.465,131.809
		c-0.197,1.231,0.303,2.304,1.028,3.256l2.188,2.874l10.292-7.839l-2.189-2.874c-0.725-0.952-1.625-1.719-2.866-1.856
		c-1.699-0.186-3.732,1.443-5.069,2.461C31.514,128.849,29.738,130.122,29.465,131.809z"/>
	<path fill="#417ACE" d="M33.602,112.309c0.815,2.049,0.77,3.582,0.006,5.355l-1.037-0.447c0.752-1.746,0.731-2.936,0.071-4.594
		c-0.878-2.206-2.476-3.152-4.291-2.43c-0.839,0.334-1.409,0.832-1.648,1.537c-0.2,0.69-0.244,1.092,0.058,2.306l0.391,1.721
		c0.263,1.116,0.258,2.067-0.028,2.883c-0.318,0.963-1.029,1.675-2.122,2.11c-2.342,0.932-4.458-0.125-5.522-2.799
		c-0.683-1.718-0.65-2.997-0.089-4.599l0.955,0.411c-0.455,1.13-0.597,2.249,0.056,3.889c0.808,2.029,2.374,2.785,4.15,2.078
		c0.8-0.318,1.312-0.793,1.527-1.444c0.216-0.65,0.209-1.575,0.036-2.41l-0.364-1.596c-0.345-1.378-0.332-2.084-0.069-2.844
		c0.322-1.01,1.099-1.839,2.211-2.282C30.254,108.215,32.444,109.4,33.602,112.309z"/>
	<path fill="#417ACE" d="M28.803,101.36l-0.247-1.406l2.812-0.494l1.653,1.159L28.803,101.36z"/>
	<path fill="#417ACE" d="M31.357,73.237L17.88,73.873l11.954,6.255l-0.249,1.128L14.177,81.68l0.258-1.169l13.374-0.271
		L15.867,74.03l0.253-1.148l13.447-0.599l-12.015-5.881l0.258-1.169l13.795,6.877L31.357,73.237z"/>
	<path fill="#417ACE" d="M33.411,63.557l0.674-1.4l1.4,0.674l-0.674,1.4L33.411,63.557z"/>
	<path fill="#417ACE" d="M41.408,53.279l-0.676,0.911l-4.978-3.691l-9.665-1.674l0.726-0.979l8.34,1.45l-3.861-7.492l0.726-0.979
		l4.41,8.762L41.408,53.279z"/>
</g>
</svg>
